<?xml version="1.0" encoding="UTF-8" standalone="no"?>
<!DOCTYPE svg PUBLIC "-//W3C//DTD SVG 1.1//EN" "http://www.w3.org/Graphics/SVG/1.1/DTD/svg11.dtd">
<svg width="100%" height="100%" viewBox="0 0 730 621" version="1.1" xmlns="http://www.w3.org/2000/svg" xmlns:xlink="http://www.w3.org/1999/xlink" xml:space="preserve" xmlns:serif="http://www.serif.com/" style="fill-rule:evenodd;clip-rule:evenodd;stroke-linejoin:round;stroke-miterlimit:2;">
    <g transform="matrix(4.16667,0,0,4.16667,0,0)">
        <path fill="#555555" d="M105.048,34.592C105.473,34.05 106.144,33.766 106.803,33.569C107.65,33.314 108.546,33.171 109.434,33.171C110.639,33.171 111.829,33.434 112.865,34.04C114.666,35.093 115.837,37.318 115.289,39.33C115.23,39.544 115.149,39.761 114.989,39.913C114.835,40.059 114.629,40.122 114.416,40.122C114.22,40.122 114.019,40.069 113.846,39.977C113.486,39.785 113.218,39.462 112.939,39.164C112.192,38.366 110.332,37.499 109.37,37.269C108.407,37.04 106.725,37.112 106.054,36.938C105.689,36.843 105.308,36.738 105.038,36.476C104.544,35.996 104.625,35.133 105.048,34.592ZM105.423,39.357C105.985,39.503 106.622,39.536 107.358,39.574C107.841,39.599 108.502,39.633 108.791,39.701C109.442,39.857 110.789,40.536 111.116,40.874L111.216,40.983C111.522,41.315 111.985,41.818 112.67,42.183C113.209,42.47 113.813,42.622 114.416,42.622C115.286,42.622 116.101,42.304 116.709,41.727C117.407,41.065 117.628,40.254 117.701,39.987C118.52,36.981 117.018,33.572 114.127,31.882C112.772,31.09 111.149,30.671 109.434,30.671C108.323,30.671 107.195,30.84 106.084,31.174C105.223,31.433 103.975,31.908 103.08,33.05C101.832,34.645 101.926,36.937 103.294,38.268C104.044,38.997 104.941,39.231 105.423,39.357Z" style="fill-rule:nonzero;"/>
        <path fill="#555555" d="M59.683,39.164C59.404,39.462 59.136,39.785 58.776,39.977C58.604,40.069 58.402,40.122 58.206,40.122C57.993,40.122 57.787,40.059 57.633,39.913C57.473,39.761 57.392,39.544 57.334,39.33C56.785,37.318 57.957,35.093 59.757,34.04C60.793,33.434 61.983,33.171 63.188,33.171C64.076,33.171 64.972,33.314 65.819,33.569C66.479,33.766 67.149,34.05 67.574,34.592C67.998,35.133 68.078,35.996 67.585,36.476C67.314,36.738 66.933,36.843 66.568,36.938C65.898,37.112 64.215,37.04 63.252,37.269C62.29,37.499 60.43,38.366 59.683,39.164ZM65.264,39.574C66.001,39.536 66.637,39.503 67.198,39.357C67.681,39.231 68.578,38.997 69.328,38.268C70.696,36.937 70.79,34.645 69.542,33.051C68.648,31.909 67.4,31.433 66.539,31.174C65.427,30.84 64.299,30.671 63.188,30.671C61.473,30.671 59.85,31.09 58.495,31.882C55.605,33.572 54.102,36.981 54.921,39.988C54.995,40.256 55.216,41.067 55.914,41.728C56.522,42.304 57.336,42.622 58.206,42.622C58.809,42.622 59.413,42.47 59.952,42.183C60.637,41.817 61.1,41.315 61.406,40.983L61.507,40.874C61.833,40.536 63.18,39.857 63.832,39.701C64.12,39.633 64.781,39.599 65.264,39.574Z" style="fill-rule:nonzero;"/>
        <path fill="#555555" d="M87.217,73.394C86.796,73.227 85.866,72.478 85.014,71.267C85.748,70.971 86.585,70.798 87.363,70.798C88.085,70.798 88.873,70.971 89.478,71.188C88.61,72.448 87.648,73.224 87.217,73.394ZM95.249,65.715C93.327,67.451 91.434,67.095 90.71,66.863C89.701,66.538 88.911,65.828 88.694,65.075C88.694,65.072 88.696,65.07 88.696,65.066L88.696,62.34C88.977,62.366 89.253,62.394 89.507,62.423C89.95,62.473 90.356,62.517 90.73,62.533C91.146,62.55 91.628,62.553 92.132,62.343C92.874,62.031 93.432,61.329 93.665,60.416C94.044,58.924 93.517,57.204 92.32,56.034C91.211,54.951 89.385,54.305 87.437,54.305C85.489,54.305 83.663,54.951 82.553,56.035C81.358,57.204 80.831,58.924 81.21,60.416C81.443,61.33 82.002,62.032 82.747,62.345C83.13,62.505 83.505,62.54 83.845,62.54C83.948,62.54 84.047,62.537 84.143,62.533C84.519,62.517 84.925,62.473 85.368,62.423C85.627,62.393 85.908,62.364 86.196,62.338L86.196,65.049C86.004,65.82 85.233,66.527 84.203,66.865C83.473,67.101 81.568,67.469 79.627,65.715C79.114,65.252 78.324,65.291 77.861,65.805C77.398,66.317 77.438,67.107 77.951,67.57C78.957,68.479 80.113,69.082 81.314,69.371C82.464,72.968 85.386,75.915 87.217,75.915C89.034,75.915 91.924,73.012 93.093,69.452C94.461,69.223 95.79,68.594 96.924,67.57C97.437,67.107 97.477,66.317 97.014,65.805C96.551,65.292 95.761,65.254 95.249,65.715Z" style="fill-rule:nonzero;"/>
        <path fill="#555555" d="M29.715,50.708C29.505,51.15 29.234,51.398 29.058,51.448C28.314,51.656 27.452,51.496 26.54,51.327C26.299,51.282 26.059,51.237 25.821,51.199C23.873,50.885 22.402,51.238 21.447,52.249C20.885,52.841 20.614,53.56 20.374,54.196C20.251,54.522 20.134,54.832 19.991,55.094C19.509,55.976 18.531,56.567 17.554,56.567L17.55,56.567C16.576,56.566 15.607,55.975 15.14,55.097C14.75,54.36 13.893,51.348 14.744,48.664C15.304,46.895 16.508,45.533 18.323,44.616C19.401,44.07 20.511,43.798 21.644,43.798C22.508,43.798 23.386,43.957 24.272,44.275C27.226,45.339 29.465,47.935 29.818,48.744C30.063,49.307 30.024,50.059 29.715,50.708ZM31.652,47.944C31.102,46.687 28.494,43.67 24.949,42.393C22.366,41.464 19.833,41.611 17.42,42.831C15.109,44.001 13.567,45.76 12.837,48.059C11.689,51.681 12.968,55.271 13.375,56.034C14.19,57.57 15.829,58.564 17.548,58.567L17.554,58.567C19.267,58.567 20.912,57.581 21.747,56.052C21.957,55.667 22.103,55.278 22.246,54.902C22.435,54.399 22.615,53.924 22.899,53.624C23.491,53.001 24.641,53.037 25.502,53.174C25.726,53.21 25.95,53.251 26.174,53.293C27.22,53.488 28.403,53.708 29.598,53.374C30.379,53.154 31.082,52.495 31.523,51.565C32.08,50.392 32.128,49.038 31.652,47.945L31.652,47.944Z" style="fill-rule:nonzero;"/>
        <path fill="#555555" d="M8.216,51.947L8.215,51.947L8.717,51.082L8.216,51.947ZM8.106,52.837C7.674,52.721 6.937,52.138 6.654,51.722C7.088,51.671 7.821,51.774 8.145,51.912C8.237,52.13 8.207,52.616 8.106,52.837ZM9.219,50.217C8.499,49.799 6.5,49.419 5.39,50.049C4.857,50.352 4.546,50.866 4.541,51.457C4.529,52.61 5.669,53.787 6.736,54.393C7.342,54.738 7.837,54.859 8.234,54.859C8.603,54.859 8.886,54.754 9.093,54.628C9.92,54.124 10.206,53.069 10.197,52.249C10.186,51.311 9.83,50.571 9.219,50.217Z" style="fill-rule:nonzero;"/>
        <path fill="#555555" d="M28.021,38.436C28.226,38.904 28.326,39.82 28.199,40.248C27.944,40.215 27.526,39.987 27.392,39.796C27.448,39.449 27.754,38.783 28.021,38.436ZM26.585,41.711C27.043,42.008 27.662,42.249 28.28,42.249C28.589,42.249 28.898,42.188 29.188,42.045C29.636,41.821 30.184,41.271 30.244,39.924C30.297,38.699 29.909,37.106 28.926,36.504C28.421,36.194 27.824,36.184 27.282,36.473C26.158,37.075 25.415,38.972 25.385,39.803C25.36,40.508 25.796,41.204 26.585,41.711Z" style="fill-rule:nonzero;"/>
        <path fill="#555555" d="M9.468,46.209C9.328,46.571 9.123,46.832 9.002,46.878C8.742,46.86 7.898,46.273 7.212,45.215C6.701,44.425 6.627,43.891 6.634,43.824C6.691,43.778 6.898,43.716 7.235,43.716C7.41,43.716 7.619,43.732 7.86,43.776C8.683,43.927 9.367,44.311 9.529,44.581C9.67,44.817 9.73,45.533 9.468,46.209ZM7.008,41.722C5.598,41.792 5.058,42.502 4.863,42.919C4.253,44.213 5.146,45.964 6.185,47.172C6.659,47.723 7.796,48.878 8.998,48.878C9.166,48.878 9.337,48.855 9.507,48.805C10.309,48.564 10.958,47.899 11.333,46.932C11.711,45.956 11.831,44.533 11.244,43.554C10.51,42.328 8.488,41.637 7.008,41.722Z" style="fill-rule:nonzero;"/>
        <path fill="#555555" d="M20.651,35.048C21.007,35.181 21.558,35.862 21.861,36.774C22.113,37.533 22.053,38.013 22.012,38.089C21.458,38.528 20.064,38.461 19.74,38.168C19.646,37.264 20.283,35.264 20.651,35.048ZM19.184,40.119C19.642,40.301 20.21,40.401 20.798,40.401C21.678,40.401 22.599,40.176 23.254,39.657C23.91,39.138 24.169,38.218 23.987,37.065C23.749,35.564 22.743,33.69 21.346,33.173C20.694,32.933 20.023,33.053 19.456,33.512C18.133,34.582 17.604,37.399 17.768,38.517C17.874,39.23 18.377,39.799 19.184,40.119Z" style="fill-rule:nonzero;"/>
        <path fill="#555555" d="M11.845,37.011C11.918,36.949 11.994,36.909 12.111,36.909C12.154,36.909 12.201,36.914 12.256,36.926C13.252,37.128 14.69,38.813 15.155,39.679C15.057,40.173 13.663,41.364 12.638,41.585C12.316,41.321 11.725,40.167 11.576,38.761C11.474,37.799 11.644,37.179 11.845,37.011ZM12.577,43.602C12.662,43.602 12.741,43.596 12.812,43.585C14.276,43.372 16.213,42.007 16.877,40.72C17.22,40.057 17.251,39.382 16.963,38.82C16.509,37.933 14.645,35.369 12.654,34.965C11.872,34.809 11.149,34.984 10.56,35.477C8.968,36.812 9.541,39.912 10.275,41.553C11.045,43.271 11.975,43.602 12.577,43.602Z" style="fill-rule:nonzero;"/>
        <path fill="#555555" d="M159.388,55.097C158.921,55.975 157.952,56.566 156.978,56.567L156.974,56.567C155.997,56.567 155.019,55.976 154.538,55.094C154.394,54.83 154.277,54.52 154.153,54.193C153.913,53.559 153.642,52.84 153.083,52.249C152.352,51.476 151.319,51.089 150.003,51.089C149.598,51.089 149.166,51.125 148.707,51.199C148.469,51.237 148.23,51.282 147.99,51.326C147.078,51.495 146.216,51.657 145.471,51.448C145.294,51.398 145.022,51.15 144.813,50.708C144.504,50.059 144.465,49.307 144.711,48.745L144.711,48.744C145.063,47.937 147.3,45.341 150.254,44.276C152.302,43.539 154.304,43.653 156.205,44.616C158.02,45.533 159.224,46.895 159.784,48.664C160.635,51.348 159.778,54.36 159.388,55.097ZM157.107,42.831C154.693,41.61 152.159,41.464 149.576,42.394C146.032,43.672 143.425,46.688 142.877,47.945C142.4,49.038 142.448,50.391 143.005,51.564C143.446,52.495 144.147,53.154 144.931,53.374C146.124,53.708 147.309,53.487 148.355,53.293C148.579,53.251 148.803,53.21 149.025,53.174C149.889,53.037 151.04,53.001 151.63,53.624C151.913,53.923 152.093,54.397 152.282,54.899C152.425,55.277 152.572,55.667 152.782,56.052C153.615,57.581 155.26,58.567 156.974,58.567L156.98,58.567C158.699,58.564 160.338,57.57 161.153,56.034C161.56,55.271 162.839,51.681 161.69,48.059C160.961,45.76 159.419,44.001 157.107,42.831Z" style="fill-rule:nonzero;"/>
        <path fill="#555555" d="M116.342,80.206C119.288,76.433 122.301,71.806 121.664,69.32C121.379,68.21 120.213,67.276 118.597,66.08C118.303,65.862 118.025,65.656 117.792,65.471C116.348,64.32 115.102,63.327 114.966,62.788C114.752,61.928 116.694,58.949 118.5,56.97C119.61,55.786 120.485,55.214 121.089,55.298C124.239,55.784 131.86,62.027 133.634,65.575C134.188,66.685 134.161,67.555 127.803,72.976C123.61,76.245 120.404,77.945 116.342,80.206ZM41.059,65.575C42.834,62.027 50.455,55.784 53.604,55.298C54.191,55.208 55.083,55.784 56.185,56.961C57.999,58.949 59.941,61.928 59.728,62.785C59.591,63.327 58.345,64.32 56.901,65.471C56.668,65.656 56.39,65.862 56.096,66.08C54.48,67.276 53.314,68.21 53.029,69.321C52.393,71.806 55.406,76.433 58.351,80.205C54.289,77.944 48.778,74.394 46.89,72.977C40.533,67.555 40.504,66.684 41.059,65.575ZM169.691,54.859C169.115,55.325 168.461,55.852 167.777,56.506C166.06,58.148 162.751,61.829 159.322,68.41C158.988,68.916 158.556,69.781 158.213,70.641C154.833,77.782 151.27,88.8 151.687,102.965C147.133,104.929 142.322,107.926 137.914,111.992C137.989,111.243 138.06,110.501 138.119,109.779L138.187,108.96C138.235,108.366 137.857,107.82 137.283,107.656L134.018,106.724L137.889,104.12C138.232,103.889 138.439,103.503 138.441,103.089L138.444,102.56C138.497,92.225 136.699,86.473 136.622,86.233L136.188,84.871C136.063,84.482 135.758,84.179 135.368,84.058C134.982,83.936 134.555,84.012 134.232,84.263L133.101,85.138C117.69,97.074 105.949,121.421 113.065,140.682C112.428,140.93 111.79,141.175 111.144,141.405C107.951,135.486 98.817,122.033 80.494,118.65L78.976,118.37C78.56,118.294 78.132,118.432 77.841,118.74C77.55,119.048 77.435,119.482 77.535,119.894L77.899,121.394C79.825,129.315 83.567,138.13 88.059,145.484C87.846,145.486 87.635,145.5 87.42,145.5C70.693,145.5 55.311,139.665 43.172,129.942C46.453,123.587 48.731,117.339 49.596,112.234C49.676,111.758 49.477,111.28 49.083,111.002L47.925,110.193C46.887,109.47 46.135,108.947 45.511,108.443C46.946,107.851 48.575,107.083 49.901,106.023C50.182,105.797 50.353,105.462 50.37,105.102C50.517,101.822 49.825,96.976 49.399,94.378C48.246,87.342 47.818,87.184 47.175,86.945C45.786,86.414 37.631,91.579 30.537,101.797C28.507,94.097 26.251,90.068 26.139,89.872L25.392,88.564C25.19,88.21 24.828,87.976 24.421,87.939C24.023,87.906 23.617,88.066 23.352,88.378L22.381,89.526C22.286,89.639 22.195,89.76 22.1,89.873C21.874,88.338 21.586,86.825 21.264,85.325L21.275,85.204L21.21,85.078C20.015,79.611 18.201,74.385 15.755,69.482C12.134,62.221 8.559,58.235 6.75,56.506C6.067,55.852 5.413,55.325 4.836,54.859C3.174,53.518 2.5,52.911 2.5,51.321C2.5,49.221 3.857,48.623 3.992,48.568C4.374,48.433 4.665,48.119 4.775,47.729C4.885,47.34 4.799,46.92 4.545,46.604C4.524,46.578 2.469,43.983 3.497,41.928C4.417,40.087 6.894,40.007 6.912,40.007C7.262,40.002 7.595,39.849 7.829,39.588C8.062,39.326 8.174,38.976 8.139,38.628C8.135,38.589 7.811,34.779 9.92,33.736C12.388,32.517 14.867,34.725 14.967,34.815C15.278,35.101 15.717,35.209 16.122,35.104C16.533,35 16.862,34.693 16.998,34.294C17.009,34.26 18.18,30.899 20.716,30.899C20.736,30.899 20.756,30.899 20.776,30.9C23.205,30.951 24.28,34.332 24.29,34.362C24.405,34.742 24.697,35.043 25.072,35.176C25.449,35.309 25.866,35.253 26.194,35.03C26.28,34.971 28.367,33.588 30.363,34.868C32.34,36.136 32.062,39.658 31.251,41.64C31.121,41.958 31.127,42.315 31.269,42.629C32.921,46.28 34.605,50.167 36.233,53.927L36.495,54.531C35.468,57.621 34.569,60.825 33.833,64.099L33.709,64.652C33.613,65.081 33.749,65.528 34.066,65.831L34.477,66.222C49.987,80.245 63.697,85.955 63.729,85.964C63.845,86 63.959,86.026 64.077,86.027C64.085,86.027 64.091,86.03 64.098,86.03C64.115,86.03 64.13,86.021 64.147,86.02C64.288,86.013 64.423,85.987 64.553,85.935C64.597,85.917 64.635,85.893 64.677,85.871C64.779,85.815 64.872,85.75 64.956,85.665C64.981,85.642 65.013,85.633 65.036,85.607C65.067,85.572 65.077,85.528 65.103,85.49C65.128,85.454 65.165,85.431 65.186,85.392C65.203,85.361 65.202,85.327 65.215,85.296C65.26,85.199 65.289,85.102 65.307,84.998C65.316,84.949 65.324,84.902 65.326,84.852C65.334,84.732 65.321,84.617 65.293,84.499C65.285,84.466 65.278,84.434 65.268,84.402C65.228,84.28 65.169,84.17 65.092,84.062C65.073,84.037 65.056,84.012 65.035,83.988C64.996,83.941 64.973,83.884 64.925,83.843L63.885,82.926C56.983,75.189 55.221,70.838 55.443,69.968C55.62,69.544 56.946,68.561 57.584,68.089C57.904,67.851 58.206,67.628 58.46,67.426C60.549,65.761 61.81,64.756 62.153,63.392C62.877,60.486 58.215,55.473 58.017,55.261C56.902,54.068 55.172,52.521 53.223,52.827C49,53.479 40.79,60.524 38.823,64.457C38.506,65.091 38.341,65.686 38.322,66.277C37.542,65.624 36.849,65.021 36.303,64.508C37.167,60.695 38.245,56.971 39.505,53.435C48.543,28.122 66.427,13.01 87.346,13.01C107.052,13.01 124.061,26.423 133.523,49.137C133.555,49.357 133.627,49.568 133.768,49.744C134.261,50.951 134.738,52.178 135.188,53.436C136.447,56.964 137.524,60.688 138.39,64.508C137.844,65.021 137.152,65.624 136.372,66.276C136.352,65.686 136.187,65.091 135.87,64.457C133.904,60.524 125.694,53.479 121.47,52.827C119.517,52.521 117.791,54.07 116.676,55.261C116.478,55.473 111.816,60.486 112.541,63.394C112.883,64.756 114.144,65.761 116.233,67.426C116.487,67.628 116.789,67.851 117.109,68.089C117.747,68.561 119.073,69.544 119.242,69.941C119.473,70.838 117.71,75.188 110.808,82.926L109.768,83.843C109.72,83.884 109.697,83.941 109.658,83.988C109.637,84.012 109.62,84.037 109.601,84.062C109.524,84.17 109.464,84.28 109.425,84.402C109.415,84.434 109.408,84.466 109.4,84.499C109.372,84.617 109.359,84.732 109.366,84.852C109.369,84.902 109.377,84.949 109.386,84.998C109.404,85.102 109.433,85.199 109.478,85.296C109.491,85.327 109.49,85.361 109.507,85.392C109.539,85.451 109.584,85.498 109.625,85.55C109.638,85.568 109.642,85.59 109.657,85.607C109.663,85.614 109.671,85.616 109.677,85.622C109.792,85.75 109.928,85.846 110.079,85.916C110.087,85.92 110.096,85.924 110.105,85.927C110.264,85.997 110.432,86.043 110.605,86.043C110.808,86.043 111.013,85.994 111.203,85.891C122.57,79.695 125.263,78.006 125.989,77.431L125.992,77.435C126.115,77.345 129.138,75.124 129.352,74.942C132.755,72.388 137.835,68.487 140.217,66.222L140.627,65.831C140.944,65.528 141.08,65.081 140.984,64.652L140.86,64.098C140.105,60.744 139.182,57.468 138.126,54.319L138.271,53.984C139.906,50.206 141.598,46.299 143.259,42.629C143.4,42.315 143.407,41.958 143.277,41.64C142.466,39.658 142.188,36.136 144.165,34.868C144.727,34.507 145.295,34.362 145.825,34.335C146.375,34.34 147.275,34.516 147.876,34.776C148.14,34.903 148.306,35.011 148.327,35.025C148.653,35.252 149.068,35.308 149.449,35.181C149.826,35.051 150.119,34.747 150.237,34.366C150.248,34.332 151.323,30.951 153.751,30.9C153.771,30.899 153.791,30.899 153.811,30.899C156.347,30.899 157.519,34.26 157.528,34.29C157.662,34.69 157.99,34.995 158.398,35.102C158.807,35.208 159.244,35.102 159.557,34.819C159.661,34.725 162.141,32.518 164.607,33.735C166.718,34.779 166.393,38.589 166.389,38.624C166.352,38.972 166.466,39.319 166.696,39.581C166.927,39.844 167.26,39.998 167.609,40.007C167.634,40.007 170.111,40.087 171.031,41.927C172.06,43.983 170.004,46.578 169.985,46.601C169.733,46.91 169.655,47.324 169.756,47.71C169.856,48.096 170.146,48.415 170.517,48.561C170.671,48.623 172.028,49.221 172.028,51.321C172.028,52.911 171.354,53.518 169.691,54.859ZM126.827,133.509C132.222,117.268 144.513,109.274 150.925,106.086C145.398,117.186 137.056,126.645 126.827,133.509ZM134.343,87.34C134.718,88.684 135.976,93.84 135.945,102.415L130.392,106.151C129.987,106.422 129.778,106.903 129.854,107.383C129.931,107.864 130.278,108.256 130.746,108.39L135.61,109.778C135.483,111.287 135.319,112.861 135.124,114.462C135.111,114.566 135.057,114.804 135.069,114.904C131.039,119.24 127.599,124.41 125.182,130.733C125.841,125.738 126.695,120.606 127.77,115.379C127.908,114.703 127.473,114.042 126.797,113.903C126.12,113.761 125.459,114.2 125.32,114.875C123.794,122.302 122.686,129.552 121.996,136.467C119.854,137.668 117.65,138.767 115.379,139.745C110.234,125.357 115.838,101.869 134.343,87.34ZM100.756,144.225C98.174,139.318 94.389,134.046 89.46,128.53C89,128.013 88.208,127.971 87.695,128.43C87.18,128.891 87.135,129.681 87.595,130.196C92.152,135.294 95.697,140.159 98.171,144.686C95.805,145.048 93.4,145.29 90.963,145.411C86.392,138.239 82.402,129.101 80.421,121.181C94.3,123.884 103.945,133.49 108.746,142.218C106.145,143.04 103.476,143.705 100.756,144.225ZM33.521,120.589C33.459,119.796 33.403,118.999 33.33,118.216C33.383,118.129 33.437,118.042 33.468,117.94C35.91,110.105 39.122,103.373 41.387,99.104C41.71,98.495 41.478,97.738 40.869,97.414C40.261,97.093 39.502,97.322 39.178,97.933C37.32,101.435 34.836,106.566 32.636,112.603C32.46,112.167 32.061,111.85 31.575,111.817L27.867,111.565L31.379,107.932C31.668,107.634 31.789,107.214 31.705,106.809L31.591,106.263C31.504,105.844 31.414,105.447 31.324,105.045C31.365,104.998 31.417,104.967 31.452,104.914C37.138,96.09 43.465,91.4 45.989,89.871C46.669,92.753 47.945,100.049 47.888,104.407C46.477,105.393 44.661,106.102 43.296,106.634L42.777,106.838C42.398,106.988 42.116,107.313 42.021,107.709C41.926,108.105 42.031,108.523 42.3,108.828C43.436,110.114 44.523,110.871 46.497,112.245L46.991,112.59C46.102,117.17 44.071,122.667 41.206,128.304C38.452,125.93 35.882,123.353 33.521,120.589ZM28.581,114.119L30.38,114.242C30.48,115.023 30.594,115.996 30.71,117.107C29.975,116.13 29.265,115.134 28.581,114.119ZM20.115,96.861C21.364,94.895 22.698,93.045 24.105,91.361C24.719,92.522 27.229,97.612 29.123,106.669L25.98,109.92C23.606,105.807 21.633,101.438 20.115,96.861ZM44.519,37.024C43.428,35.924 42.564,34.646 41.963,33.209C42.822,33.187 43.68,33.239 44.5,33.364C44.828,33.409 45.155,33.299 45.379,33.058C45.604,32.817 45.697,32.481 45.626,32.16C45.132,29.919 44.949,27.613 45.079,25.308L47.98,28.924C48.258,29.27 48.73,29.392 49.142,29.223C49.552,29.053 49.802,28.633 49.754,28.191L49.722,27.964C49.698,27.684 49.691,27.403 49.703,27.124C49.716,26.811 49.741,26.609 49.823,26.502C49.954,26.332 50.169,26.455 50.193,26.468C50.348,26.56 50.538,26.813 50.706,27.036L50.769,27.12C50.913,27.312 51.084,27.564 51.252,27.827C48.827,30.594 46.575,33.666 44.519,37.024ZM36.823,23.798C36.944,22.196 37.164,20.342 37.886,18.734C38.593,17.16 39.745,15.993 41.046,15.533C42.164,15.137 43.373,15.228 44.613,15.574C45.522,15.863 46.387,16.234 46.792,16.395C47.339,16.642 47.884,16.908 48.423,17.184C50.471,18.226 52.198,19.087 53.922,19.946C55.071,20.519 56.222,21.092 57.463,21.718C55.793,23.122 54.184,24.653 52.638,26.3C52.544,26.165 52.449,26.028 52.366,25.917L52.305,25.836C52.041,25.483 51.711,25.044 51.213,24.748C50.194,24.144 48.944,24.368 48.241,25.279C48.129,25.423 48.042,25.57 47.972,25.718L46.637,24.054C46.12,23.412 45.249,23.149 44.47,23.403C43.686,23.653 43.128,24.373 43.083,25.194C42.967,27.222 43.078,29.248 43.411,31.238C42.917,31.207 42.414,31.197 41.914,31.209C41.253,31.226 40.646,31.568 40.29,32.12C39.93,32.672 39.867,33.365 40.12,33.976C40.866,35.772 41.957,37.363 43.359,38.706C43.394,38.739 43.438,38.754 43.476,38.781C42.124,41.131 40.868,43.616 39.708,46.221C37.195,40.274 36.248,33.447 36.76,24.983C36.78,24.963 36.798,24.942 36.818,24.922L36.766,24.871C36.788,24.509 36.795,24.165 36.823,23.798ZM129.267,31.844C129.535,32.05 129.89,32.106 130.205,31.995L130.871,31.762C131.034,31.705 131.22,31.65 131.366,31.733C131.539,31.831 131.591,32.058 131.519,32.404C131.219,33.846 130.631,35.235 129.832,36.478C127.638,32.965 125.226,29.776 122.626,26.926L123.054,26.328C123.233,26.065 123.404,25.816 123.579,25.682C123.634,25.638 123.717,25.621 123.79,25.638C123.838,25.646 123.901,25.671 123.938,25.734C124.043,25.915 124.051,26.214 124.06,26.56L124.062,26.667C124.074,27.08 124.08,27.494 124.08,27.906C124.066,28.266 124.248,28.613 124.567,28.804C124.96,29.038 125.46,28.976 125.783,28.655C126.043,28.397 126.3,28.126 126.56,27.848C127.415,26.935 128.224,26.073 129.293,25.555L128.879,30.975C128.854,31.311 128.998,31.638 129.267,31.844ZM130.003,15.504C131.135,15.227 132.239,15.169 133.265,15.533C134.566,15.993 135.718,17.16 136.425,18.733C136.997,20.007 137.25,21.43 137.392,22.764C137.446,23.292 137.499,23.787 137.524,24.349C138.122,33.009 137.279,39.782 134.805,45.812C133.62,43.188 132.332,40.695 130.951,38.333C130.992,38.294 131.044,38.272 131.079,38.225C132.245,36.622 133.074,34.75 133.478,32.81C133.851,31 132.711,30.196 132.352,29.993C131.933,29.755 131.468,29.657 130.981,29.702L131.287,25.707C131.342,24.995 131.009,24.303 130.418,23.902C129.825,23.498 129.058,23.444 128.42,23.755C127.452,24.225 126.667,24.888 125.978,25.569C125.923,25.295 125.831,25.012 125.668,24.731C125.352,24.184 124.808,23.799 124.176,23.675C123.533,23.546 122.867,23.703 122.355,24.1C121.932,24.427 121.651,24.836 121.403,25.198L121.227,25.444C119.891,24.076 118.511,22.789 117.085,21.599C118.229,21.023 119.301,20.489 120.37,19.956C122.101,19.093 123.832,18.229 125.888,17.183C126.523,16.859 127.168,16.542 127.812,16.262L130.003,15.504ZM172.693,47.022C173.486,45.624 174.448,43.171 173.268,40.809C172.22,38.714 170.22,37.948 168.908,37.668C168.857,35.928 168.376,32.809 165.715,31.494C163.123,30.214 160.667,31.147 159.214,32.008C158.349,30.479 156.605,28.332 153.699,28.4C150.927,28.459 149.315,30.578 148.507,32.104C146.053,28.582 143.277,25.249 140.252,22.199C140.119,22.065 139.928,21.916 139.787,21.763C139.608,20.398 139.319,19.075 138.706,17.709C137.72,15.515 136.04,13.862 134.099,13.176C132.508,12.614 130.889,12.695 129.313,13.096C116.941,4.652 102.461,0.186 87.42,0.186C72.314,0.186 57.783,4.688 45.377,13.2C43.681,12.714 41.931,12.569 40.212,13.176C38.271,13.862 36.591,15.515 35.605,17.71C34.888,19.309 34.601,20.797 34.439,22.357L34.32,22.471C31.476,25.367 28.851,28.518 26.518,31.835C26.518,31.835 26.339,32.206 26.123,32.289C25.348,30.756 23.71,28.461 20.828,28.4C20.788,28.399 20.749,28.399 20.709,28.399C17.867,28.399 16.167,30.501 15.314,32.008C13.859,31.148 11.404,30.215 8.813,31.495C6.153,32.809 5.67,35.928 5.62,37.668C4.309,37.948 2.309,38.714 1.26,40.809C0.081,43.171 1.041,45.624 1.834,47.022C0.969,47.762 0,49.09 0,51.321C0,54.169 1.586,55.45 3.266,56.806C3.831,57.261 4.416,57.732 5.022,58.312C6.713,59.93 9.734,63.276 13.187,70.198C13.189,70.203 13.085,71.287 13.068,71.71C13.031,72.666 13.013,73.628 13.013,74.594C13.013,115.622 46.392,149 87.42,149C128.448,149 161.827,115.622 161.827,74.594C161.827,73.04 161.779,71.473 161.685,69.933C161.675,69.771 161.657,69.545 161.657,69.298C164.902,63.094 167.909,59.84 169.505,58.312C170.112,57.732 170.697,57.261 171.262,56.806C172.941,55.45 174.528,54.17 174.528,51.321C174.528,49.09 173.559,47.763 172.693,47.022Z" style="fill-rule:nonzero;"/>
        <path fill="#555555" d="M166.43,52.835C166.322,52.601 166.293,52.127 166.383,51.912C166.707,51.774 167.434,51.677 167.869,51.721C167.582,52.143 166.859,52.715 166.43,52.835ZM166.312,51.947L165.811,51.082L166.313,51.947L166.312,51.947ZM169.138,50.049C168.029,49.421 166.029,49.8 165.309,50.217C164.698,50.571 164.342,51.311 164.332,52.248C164.323,53.068 164.608,54.124 165.436,54.628C165.642,54.754 165.925,54.859 166.295,54.859C166.691,54.859 167.187,54.738 167.793,54.393C168.859,53.787 170.001,52.609 169.987,51.457C169.981,50.866 169.671,50.352 169.138,50.049Z" style="fill-rule:nonzero;"/>
        <path fill="#555555" d="M146.503,38.432C146.771,38.777 147.08,39.447 147.136,39.796C147,39.99 146.571,40.223 146.331,40.255C146.2,39.828 146.301,38.893 146.503,38.432ZM145.341,42.045C145.63,42.188 145.938,42.249 146.248,42.249C146.865,42.249 147.483,42.008 147.943,41.711C148.731,41.204 149.168,40.508 149.143,39.803C149.113,38.972 148.37,37.075 147.246,36.473C146.704,36.184 146.106,36.193 145.602,36.503C144.619,37.106 144.23,38.699 144.284,39.924C144.344,41.271 144.892,41.821 145.341,42.045Z" style="fill-rule:nonzero;"/>
        <path fill="#555555" d="M165,44.582C165,44.582 165,44.581 165.001,44.581C165.162,44.311 165.845,43.928 166.667,43.777C166.928,43.729 167.151,43.714 167.332,43.714C167.642,43.714 167.824,43.76 167.855,43.768C167.9,43.891 167.827,44.425 167.315,45.215C166.63,46.273 165.786,46.86 165.595,46.889C165.405,46.832 165.2,46.571 165.06,46.208C164.798,45.533 164.858,44.818 165,44.582ZM165.53,48.879C166.731,48.878 167.869,47.723 168.343,47.172C169.382,45.964 170.274,44.213 169.666,42.919C169.47,42.502 168.93,41.792 167.519,41.722C166.074,41.636 164.019,42.329 163.284,43.554C162.697,44.533 162.816,45.955 163.194,46.931C163.569,47.898 164.218,48.564 165.021,48.805C165.191,48.855 165.361,48.879 165.53,48.879Z" style="fill-rule:nonzero;"/>
        <path fill="#555555" d="M152.667,36.774C152.956,35.905 153.47,35.245 153.827,35.07C154.286,35.398 154.878,37.294 154.788,38.168C154.463,38.46 153.07,38.528 152.54,38.114C152.475,38.013 152.415,37.533 152.667,36.774ZM153.73,40.401C154.317,40.401 154.886,40.301 155.344,40.119C156.151,39.799 156.654,39.23 156.76,38.517C156.924,37.399 156.395,34.582 155.072,33.512C154.505,33.052 153.835,32.931 153.183,33.173C151.786,33.69 150.779,35.564 150.541,37.064C150.358,38.218 150.618,39.138 151.273,39.657C151.929,40.176 152.85,40.401 153.73,40.401Z" style="fill-rule:nonzero;"/>
        <path fill="#555555" d="M162.273,36.925C162.478,36.885 162.583,36.927 162.684,37.011C162.885,37.179 163.055,37.798 162.953,38.759C162.804,40.166 162.213,41.32 161.891,41.585C160.866,41.364 159.472,40.173 159.373,39.678C159.839,38.812 161.278,37.127 162.273,36.925ZM161.717,43.585C161.788,43.596 161.866,43.602 161.952,43.602C162.554,43.602 163.483,43.27 164.253,41.553C164.988,39.912 165.561,36.812 163.969,35.477C163.38,34.984 162.657,34.809 161.876,34.965C159.886,35.368 158.02,37.932 157.565,38.819C157.564,38.819 157.564,38.82 157.564,38.82C157.277,39.382 157.309,40.057 157.651,40.721C158.315,42.007 160.254,43.372 161.717,43.585Z" style="fill-rule:nonzero;"/>
        <path fill="#555555" d="M108.914,97.185C108.7,97.059 108.384,97.006 108.143,97.084C107.901,97.162 107.668,97.312 107.546,97.544C107.425,97.772 107.356,98.061 107.445,98.314C107.556,98.63 107.628,98.956 107.68,99.286C107.718,99.673 107.722,100.062 107.676,100.449C107.647,100.686 107.808,100.995 107.969,101.156C108.142,101.33 108.427,101.46 108.676,101.449C108.934,101.437 109.202,101.353 109.383,101.156C109.435,101.089 109.487,101.021 109.539,100.954C109.629,100.798 109.675,100.63 109.676,100.449C109.781,99.561 109.671,98.625 109.374,97.782C109.286,97.534 109.146,97.321 108.914,97.185Z" style="fill-rule:nonzero;"/>
        <path fill="#555555" d="M105.857,99.31C105.599,99.321 105.331,99.406 105.15,99.603C104.977,99.791 104.841,100.045 104.857,100.309C104.906,101.082 104.878,101.857 104.779,102.624C104.774,102.659 104.77,102.693 104.764,102.727C104.72,103.001 104.719,103.249 104.865,103.497C104.986,103.705 105.224,103.903 105.463,103.957C105.719,104.015 106.006,104.003 106.233,103.856C106.438,103.724 106.652,103.51 106.693,103.259C106.85,102.281 106.92,101.298 106.857,100.309C106.841,100.043 106.757,99.795 106.564,99.603C106.391,99.429 106.106,99.299 105.857,99.31Z" style="fill-rule:nonzero;"/>
        <path fill="#555555" d="M54.19,123.39C53.976,123.265 53.66,123.212 53.419,123.289C52.939,123.445 52.528,123.994 52.721,124.52C52.92,125.062 53.058,125.623 53.147,126.194C53.187,126.537 53.215,126.881 53.215,127.227C53.216,127.75 53.675,128.251 54.215,128.227C54.757,128.203 55.216,127.787 55.215,127.227C55.214,126.129 55.028,125.019 54.649,123.988C54.558,123.739 54.425,123.528 54.19,123.39Z" style="fill-rule:nonzero;"/>
        <path fill="#555555" d="M38.808,75.034C38.436,74.56 38.063,74.087 37.69,73.613C37.6,73.515 37.493,73.446 37.369,73.406C37.25,73.343 37.121,73.315 36.983,73.32C36.738,73.32 36.445,73.429 36.276,73.613C36.101,73.803 35.971,74.054 35.983,74.32C35.995,74.409 36.007,74.497 36.019,74.586C36.067,74.755 36.152,74.902 36.276,75.027C36.649,75.501 37.022,75.974 37.394,76.448C37.485,76.546 37.592,76.614 37.716,76.655C37.835,76.717 37.964,76.746 38.101,76.741C38.347,76.741 38.64,76.632 38.808,76.448C38.983,76.257 39.113,76.007 39.101,75.741C39.089,75.652 39.077,75.564 39.065,75.475C39.018,75.306 38.932,75.159 38.808,75.034Z" style="fill-rule:nonzero;"/>
        <path fill="#555555" d="M42.76,76.305C42.331,75.792 41.902,75.279 41.472,74.767C41.382,74.669 41.274,74.6 41.151,74.56C41.031,74.497 40.903,74.468 40.765,74.474C40.52,74.474 40.227,74.583 40.058,74.767C39.883,74.957 39.753,75.207 39.765,75.474C39.777,75.562 39.789,75.651 39.801,75.739C39.849,75.909 39.934,76.056 40.058,76.181C40.488,76.694 40.917,77.206 41.346,77.719C41.437,77.817 41.544,77.886 41.668,77.926C41.787,77.988 41.916,78.017 42.053,78.012C42.298,78.012 42.591,77.903 42.76,77.719C42.935,77.528 43.065,77.278 43.053,77.012C43.041,76.924 43.029,76.835 43.018,76.746C42.97,76.577 42.884,76.43 42.76,76.305Z" style="fill-rule:nonzero;"/>
        <path fill="#555555" d="M81.661,21.561C81.894,21.684 82.175,21.745 82.432,21.662C82.672,21.584 82.911,21.434 83.03,21.203C83.451,20.379 83.687,19.494 83.72,18.569C83.729,18.318 83.602,18.037 83.427,17.862C83.253,17.688 82.969,17.558 82.72,17.569C82.162,17.594 81.74,18.008 81.72,18.569C81.715,18.684 81.703,18.798 81.691,18.912C81.632,19.284 81.533,19.647 81.394,19.997C81.364,20.063 81.335,20.129 81.303,20.193C81.18,20.432 81.129,20.699 81.202,20.964C81.266,21.196 81.445,21.447 81.661,21.561Z" style="fill-rule:nonzero;"/>
        <path fill="#555555" d="M85.056,25.703C85.153,25.792 85.266,25.851 85.396,25.882C85.652,25.941 85.939,25.928 86.167,25.782C86.39,25.638 86.547,25.441 86.627,25.184C86.771,24.714 86.916,24.245 87.06,23.775C87.102,23.643 87.108,23.509 87.078,23.377C87.072,23.244 87.033,23.12 86.96,23.005C86.897,22.888 86.811,22.795 86.702,22.724C86.605,22.636 86.492,22.576 86.362,22.545C86.106,22.487 85.818,22.5 85.591,22.646C85.368,22.79 85.211,22.987 85.132,23.244C84.987,23.713 84.843,24.183 84.698,24.652C84.656,24.785 84.65,24.918 84.68,25.051C84.686,25.184 84.726,25.308 84.799,25.423C84.861,25.539 84.947,25.633 85.056,25.703Z" style="fill-rule:nonzero;"/>
        <path fill="#555555" d="M95.847,20.895C96.113,21.252 96.345,21.632 96.53,22.036C96.629,22.251 96.909,22.436 97.128,22.496C97.367,22.562 97.686,22.532 97.898,22.395C98.112,22.257 98.3,22.052 98.358,21.797C98.37,21.709 98.382,21.62 98.394,21.532C98.393,21.351 98.348,21.183 98.257,21.027C97.938,20.331 97.488,19.692 96.965,19.134C96.794,18.951 96.506,18.841 96.258,18.841C96.013,18.841 95.72,18.95 95.551,19.134C95.376,19.325 95.246,19.575 95.258,19.841C95.271,20.112 95.364,20.349 95.551,20.549C95.655,20.66 95.752,20.777 95.847,20.895Z" style="fill-rule:nonzero;"/>
        <path fill="#555555" d="M70.819,79.761C66.798,77.485 63.78,74.474 62.741,71.704C66.481,70.028 68.812,66.595 71.282,62.957C74.935,57.574 78.712,52.009 87.477,52.009C96.242,52.009 100.02,57.574 103.675,62.959C106.143,66.595 108.474,70.028 112.214,71.704L112.213,71.704C110.359,76.643 101.217,83.951 87.477,83.951C79.828,83.951 74.196,81.673 70.819,79.761ZM114.553,72.583C115.017,71.35 114.438,69.962 113.235,69.423C110.144,68.037 108.006,64.889 105.741,61.553C102.1,56.186 97.567,49.509 87.477,49.509C77.387,49.509 72.855,56.186 69.211,61.556C66.949,64.889 64.811,68.037 61.719,69.423C60.516,69.962 59.938,71.35 60.401,72.581C61.638,75.883 65.072,79.38 69.587,81.936C73.226,83.996 79.284,86.451 87.477,86.451C95.882,86.451 102.024,83.881 105.696,81.725C110.055,79.165 113.365,75.748 114.553,72.583Z" style="fill-rule:nonzero;"/>
        <path fill="#555555" d="M102.597,53.475C103.417,52.716 104.264,51.932 105.225,51.621C105.916,51.399 106.839,51.497 107.194,52.039C107.358,52.29 107.437,52.672 107.49,53.013C107.673,54.168 107.661,55.337 107.454,56.489C107.332,57.169 107.784,57.818 108.464,57.94C108.538,57.954 108.612,57.96 108.686,57.96C109.279,57.96 109.807,57.536 109.915,56.931C110.171,55.503 110.187,54.054 109.959,52.622C109.864,52.019 109.709,51.316 109.286,50.67C108.336,49.219 106.35,48.631 104.458,49.242C102.971,49.723 101.822,50.785 100.899,51.639C100.393,52.107 100.361,52.898 100.83,53.405C101.3,53.913 102.09,53.941 102.597,53.475Z" style="fill-rule:nonzero;"/>
        <path fill="#555555" d="M64.65,50.67C64.227,51.316 64.072,52.019 63.977,52.622C63.751,54.055 63.766,55.505 64.022,56.931C64.13,57.536 64.658,57.96 65.252,57.96C65.325,57.96 65.399,57.954 65.473,57.94C66.153,57.818 66.605,57.169 66.483,56.489C66.276,55.338 66.264,54.168 66.446,53.013C66.5,52.672 66.578,52.29 66.742,52.039C67.096,51.495 68.023,51.399 68.71,51.621C69.67,51.931 70.519,52.716 71.34,53.475C71.846,53.943 72.638,53.913 73.107,53.405C73.576,52.898 73.544,52.107 73.038,51.639C72.113,50.784 70.962,49.721 69.478,49.242C67.878,48.726 65.709,49.052 64.65,50.67Z" style="fill-rule:nonzero;"/>
    </g>
</svg>
